<?xml version="1.0" encoding="UTF-8"?><!DOCTYPE svg PUBLIC "-//W3C//DTD SVG 1.1//EN" "http://www.w3.org/Graphics/SVG/1.1/DTD/svg11.dtd"><svg width="297" height="192" viewBox="0 0 297 192" xmlns="http://www.w3.org/2000/svg" xmlns:xlink="http://www.w3.org/1999/xlink"><svg width="18" height="18" viewBox="-1 -1 18 18" id="account" x="126" y="156" xmlns="http://www.w3.org/2000/svg"><path d="M8 9v2c-2.134 0-4.622.962-5 1.567V13h5v2H1v-2.5C1 10.172 5.664 9 8 9zm0 0V8C5.79 8 4 6.21 4 4s1.79-4 4-4 4 1.79 4 4-1.79 4-4 4v1zm0-3a1.999 1.999 0 1 0 0-4 1.999 1.999 0 1 0 0 4zm1 3h5l2 2v5H9V9zm2 3.001h3.001V11H11v1.001zm0 2h3.001v-1H11v1z" fill="#888" fill-rule="nonzero"/></svg><svg width="18" height="18" viewBox="-1 -1 18 18" id="account-#3d91ff" x="144" y="138" xmlns="http://www.w3.org/2000/svg"><path d="M8 9v2c-2.134 0-4.622.962-5 1.567V13h5v2H1v-2.5C1 10.172 5.664 9 8 9zm0 0V8C5.79 8 4 6.21 4 4s1.79-4 4-4 4 1.79 4 4-1.79 4-4 4v1zm0-3a1.999 1.999 0 1 0 0-4 1.999 1.999 0 1 0 0 4zm1 3h5l2 2v5H9V9zm2 3.001h3.001V11H11v1.001zm0 2h3.001v-1H11v1z" fill-rule="nonzero" fill="#3d91ff"/></svg><svg width="18" height="18" viewBox="-1 -1 18 18" id="account-#888888" x="216" y="156" xmlns="http://www.w3.org/2000/svg"><path d="M8 9v2c-2.134 0-4.622.962-5 1.567V13h5v2H1v-2.5C1 10.172 5.664 9 8 9zm0 0V8C5.79 8 4 6.21 4 4s1.79-4 4-4 4 1.79 4 4-1.79 4-4 4v1zm0-3a1.999 1.999 0 1 0 0-4 1.999 1.999 0 1 0 0 4zm1 3h5l2 2v5H9V9zm2 3.001h3.001V11H11v1.001zm0 2h3.001v-1H11v1z" fill-rule="nonzero" fill="#888"/></svg><svg id="agreement" viewBox="-118.5 116.5 18 18" width="18" height="18" x="234" y="156" xmlns="http://www.w3.org/2000/svg"><style>.adst0{fill:#888}</style><g id="adPage-1"><g id="ad_x30_104总览页-顶部导航-费用" transform="translate(-1009 -312)"><g id="ad费用" transform="translate(987)"><g id="adGroup-8" transform="translate(0 49)"><g id="ad合同管理" transform="translate(22 263)"><g id="ad合并形状-2"><path id="ad合并形状" class="adst0" d="M-102.8 127l-1.8-.1-.2-.5V120h-10v10h4.8l.5.4-.4 1.6h-6.9v-14h14v9zm-4-3.7l-.3.7h-5.7v-2h6v1.3zm4.6 4.7l-2.4 2 .7 3-2.7-1.6-2.7 1.6.7-3-2.4-2 3.1-.3 1.2-2.8 1.2 2.8 3.3.3z"/></g></g></g></g></g></g></svg><svg width="18" height="18" viewBox="-1 -1 18 18" id="api" x="252" y="156" xmlns="http://www.w3.org/2000/svg"><path d="M7.5 3.5v9h1v-4h4v-5h-5zm1 1h3v3h-3v-3zm-4 8h1v-9h-5v9h1v-4h3v4zm0-5h-3v-3h3v3zm10-4v9h1v-9h-1z" stroke="#979797" fill="#D8D8D8" fill-rule="evenodd"/></svg><svg id="bill" viewBox="-119 117 18 18" width="18" height="18" x="38" y="120" xmlns="http://www.w3.org/2000/svg"><style>.afst0{fill:#888}</style><path class="afst0" d="M-117 119v14h14v-14h-14zm12 12h-10v-10h10v10z"/><path class="afst0" d="M-113 124h6v2h-6zM-113 127h2v2h-2z"/></svg><svg width="18" height="18" viewBox="-1 -1 18 18" id="btn-dismiss" x="56" y="120" xmlns="http://www.w3.org/2000/svg"><path fill="#888" d="M13.95 3.414L12.536 2 8 6.536 3.464 2 2.05 3.414 6.586 7.95 2.05 12.485l1.414 1.414L8 9.364l4.536 4.535 1.414-1.414L9.414 7.95z"/></svg><svg id="change-icon" width="18" height="18" viewBox="-1 -1 18 18" x="74" y="120" xmlns="http://www.w3.org/2000/svg"><style>.ahst5{fill:#888}</style><path class="ahst5" d="M7 4v4.4l3.3 3.3 1.4-1.4L9 7.6V4z"/><path class="ahst5" d="M8 0C3.6 0 0 3.6 0 8v4l5-5H2.1C2.6 4.2 5 2 8 2c3.3 0 6 2.7 6 6s-2.7 6-6 6c-1.7 0-3.2-.7-4.2-1.8l-1.4 1.4C3.8 15.1 5.8 16 8 16c4.4 0 8-3.6 8-8s-3.6-8-8-8z"/></svg><svg width="18" height="18" viewBox="-1 -1 18 18" id="channel" x="92" y="120" xmlns="http://www.w3.org/2000/svg"><path d="M8 0L1 4.001V6l7 4 7-4V4.001L8 0zM3.281 5L8 2.304 12.719 5l-2.36 1.349L8 5 5.64 6.349 3.281 5zM8 12.304L1.609 8.652 1 9v3.001L8 16l7-3.999V9l-.61-.348L8 12.304z" fill="#888" fill-rule="evenodd"/></svg><svg width="18" height="18" viewBox="-1 -1 18 18" id="cn" x="110" y="120" xmlns="http://www.w3.org/2000/svg"><g fill="#D8D8D8" fill-rule="evenodd" stroke="#979797"><path d="M14.5 10.5v-7h-13v7h13zm-12-1v-5h11v5h-11z"/><path d="M7.5 1.5h1v13h-1z"/></g></svg><svg width="18" height="18" viewBox="-1 -1 18 18" id="cn-hover" x="128" y="120" xmlns="http://www.w3.org/2000/svg"><path d="M7 3V1h2v2h6v8H9v4H7v-4H1V3h6zm0 2H3v4h4V5zm2 0v4h4V5H9z" fill="#006EFF" fill-rule="evenodd"/></svg><svg id="cost" viewBox="-117 117 18 18" width="18" height="18" x="146" y="120" xmlns="http://www.w3.org/2000/svg"><style>.alst0{fill:#888}</style><g id="alPage-1"><g id="al_x30_104总览页-顶部导航-费用" transform="translate(-1008 -368)"><g id="al费用" transform="translate(987)"><g id="alGroup-8" transform="translate(0 49)"><path id="al费用中心" class="alst0" d="M-95 439h16v12h-16v-12zm14 4v-2h-12v2h12zm0 2h-12v4h12v-4z"/></g></g></g></g></svg><svg width="18" height="18" viewBox="-1 -1 18 18" id="cps" x="164" y="120" xmlns="http://www.w3.org/2000/svg"><path d="M1.5 12.5h3v-1h-2v-7h2v-1h-3v9zm14 0v-5h-2v-3h2v-1h-3v5h2v3h-2v1h3zm-5-9h-4v9h1v-4h3v-5zm-1 4h-2v-3h2v3z" stroke="#979797" fill="#D8D8D8" fill-rule="evenodd"/></svg><svg width="18" height="18" viewBox="-1 -1 18 18" id="down-icon-new" x="182" y="120" xmlns="http://www.w3.org/2000/svg"><path fill="#888" d="M12 6H4l4 5z"/></svg><svg width="18" height="18" viewBox="-1 -1 18 18" id="down-icon-new" x="200" y="120" xmlns="http://www.w3.org/2000/svg"><path fill="#888" d="M12 6H4l4 5z"/></svg><svg width="18" height="18" viewBox="-1 -1 18 18" id="en" x="218" y="120" xmlns="http://www.w3.org/2000/svg"><path d="M7.5 2.5v11h1V3.882l4.809 9.618H14.5v-11h-1v9.618L8.691 2.5H7.5zm-2 6v-1h-3v-4h3v-1h-4v11h4v-1h-3v-4h3z" stroke="#979797" fill="#D8D8D8" fill-rule="evenodd"/></svg><svg width="18" height="18" viewBox="-1 -1 18 18" id="en-hover" x="236" y="120" xmlns="http://www.w3.org/2000/svg"><path d="M7 2h2l4 8V2h2v12h-2L9 6v8H7V2zM3 12h3v2H1V2h5v2H3v3h3v2H3v3z" fill="#006EFF" fill-rule="evenodd"/></svg><svg width="18" height="18" viewBox="-1 -1 18 18" id="error-icon-#888888" x="254" y="120" xmlns="http://www.w3.org/2000/svg"><g fill="#888"><path d="M8 1a7 7 0 1 0 0 14A7 7 0 0 0 8 1zm0 12c-2.757 0-5-2.243-5-5s2.243-5 5-5 5 2.243 5 5-2.243 5-5 5z"/><path d="M7 4h2v5H7zM7 10h2v2H7z"/></g></svg><svg width="18" height="18" viewBox="-1 -1 18 18" id="external-link-icon-#3d91ff" x="272" y="120" xmlns="http://www.w3.org/2000/svg"><g fill="#3d91ff"><path d="M8 3l1.793 1.793L6 8.586 7.414 10l3.793-3.793L13 8V3z"/><path d="M11 11H5V5h2V3H3v10h10V9h-2z"/></g></svg><svg width="18" height="18" viewBox="-1 -1 18 18" id="external-link-icon-#444444" y="138" xmlns="http://www.w3.org/2000/svg"><g fill="#444"><path d="M8 3l1.793 1.793L6 8.586 7.414 10l3.793-3.793L13 8V3z"/><path d="M11 11H5V5h2V3H3v10h10V9h-2z"/></g></svg><svg width="18" height="18" viewBox="-1 -1 18 18" id="external-link-icon-#888" x="18" y="138" xmlns="http://www.w3.org/2000/svg"><g fill="#888"><path d="M8 3l1.793 1.793L6 8.586 7.414 10l3.793-3.793L13 8V3z"/><path d="M11 11H5V5h2V3H3v10h10V9h-2z"/></g></svg><svg id="facilitator" viewBox="-117 117 18 18" width="18" height="18" x="36" y="138" xmlns="http://www.w3.org/2000/svg"><style>.avst0{fill:#888}</style><g id="avPage-1"><g id="av_x30_104总览页-顶部导航-个人信息" transform="translate(-949 -318)"><g id="av个人信息" transform="translate(678)"><path id="av服务商管理" class="avst0" d="M169 446.5v4h-12v-4c-1.1 0-2-.9-2-2 0-.4.1-.8.3-1.1l1.7-5.9h12l1.7 5.9c.2.3.3.7.3 1.1 0 1.1-.9 2-2 2zm-.7-4l-.9-3h-9l-.9 3h10.8zm-9.3 2v4h8v-3.9-.1c0 1.1-.9 2-2 2s-2-.9-2-2c0 1.1-.9 2-2 2s-2-.9-2-2z"/></g></g></g></svg><svg width="18" height="18" viewBox="-1 -1 18 18" id="jp" x="54" y="138" xmlns="http://www.w3.org/2000/svg"><g fill="none" fill-rule="evenodd" stroke="#979797"><path stroke-width="2" d="M4 2h8v12H4z"/><path fill="#D8D8D8" d="M5.5 7.5h6v1h-6z"/></g></svg><svg width="18" height="18" viewBox="-1 -1 18 18" id="jp-hover" x="72" y="138" xmlns="http://www.w3.org/2000/svg"><g fill="none" fill-rule="evenodd" stroke="#006EFF"><path stroke-width="2" d="M4 2h8v12H4z"/><path fill="#D8D8D8" d="M5.5 7.5h6v1h-6z"/></g></svg><svg width="18" height="18" viewBox="-1 -1 18 18" id="ko" x="90" y="138" xmlns="http://www.w3.org/2000/svg"><path d="M12.5.5h-1v12h1v-6h2v-1h-2v-5zm-10 3v1h7v-1h-7zm2-3v1h3v-1h-3zm2 10c-1.081 0-2-.663-2-1.5s.919-1.5 2-1.5 2 .663 2 1.5-.919 1.5-2 1.5zm0 1c1.672 0 3-1.138 3-2.5s-1.328-2.5-3-2.5-3 1.138-3 2.5 1.328 2.5 3 2.5zm-2 1h-1v3h9v-1h-8v-2z" stroke="#979797" fill="#D8D8D8" fill-rule="evenodd"/></svg><svg width="18" height="18" viewBox="-1 -1 18 18" id="ko-hover" x="108" y="138" xmlns="http://www.w3.org/2000/svg"><path d="M13 5h2v2h-2v6h-2V0h2v5zM2 3h8v2H2V3zm2-3h4v2H4V0zm2.5 10C7.391 10 8 9.478 8 9s-.609-1-1.5-1S5 8.522 5 9s.609 1 1.5 1zm0 2C4.567 12 3 10.657 3 9s1.567-3 3.5-3S10 7.343 10 9s-1.567 3-3.5 3zM5 14h8v2H3v-4h2v2z" fill="#006EFF" fill-rule="evenodd"/></svg><svg width="18" height="18" viewBox="-1 -1 18 18" id="link-icon" x="126" y="138" xmlns="http://www.w3.org/2000/svg"><g fill="#888"><path d="M8 3l1.793 1.793L6 8.586 7.414 10l3.793-3.793L13 8V3z"/><path d="M11 11H5V5h2V3H3v10h10V9h-2z"/></g></svg><svg id="list" viewBox="-119 116.5 18 18" width="18" height="18" x="20" y="120" xmlns="http://www.w3.org/2000/svg"><style>.bbst0{fill:#888}</style><g id="bbPage-1"><g id="bb_x30_104总览页-顶部导航-费用" transform="translate(-1008 -252)"><g id="bb费用" transform="translate(987)"><g id="bbGroup-8" transform="translate(0 49)"><path id="bb收支明细" class="bbst0" d="M-90.9 327l-1.9-3h2.6l1.4 2.3 1.4-2.3h2.4l-1.9 3h1v2h-2v1h2v2h-2v1h-2v-1h-2v-2h2v-1h-2v-2h1zm-5.1 9v-15h14v15h-14zm2-2h10v-11h-10v11z"/></g></g></g></g></svg><svg width="18" height="18" viewBox="-1 -1 18 18" id="mail-icon" x="162" y="138" xmlns="http://www.w3.org/2000/svg"><path d="M8 9.039l6-3.464V12H2V5.575l6 3.464zm0-2.078L2.871 4h10.258L8 6.961zM0 14h16V2H0v12z" fill="#888"/></svg><svg width="18" height="18" viewBox="-1 -1 18 18" id="mail-icon-#ffffff" x="180" y="138" xmlns="http://www.w3.org/2000/svg"><path d="M8 9.039l6-3.464V12H2V5.575l6 3.464zm0-2.078L2.871 4h10.258L8 6.961zM0 14h16V2H0v12z" fill="#fff"/></svg><svg width="18" height="18" viewBox="-1 -1 18 18" id="menu-fold" x="198" y="138" xmlns="http://www.w3.org/2000/svg"><path fill="#BBB" d="M7.9 4.5l-.7-.7-3.5 3.5L3 8l.7.7 3.5 3.5.7-.7L4.4 8l3.5-3.5zm4 0l-.7-.7L7 8l4.2 4.2.7-.7L8.4 8l3.5-3.5z"/></svg><svg width="18" height="18" viewBox="-1 -1 18 18" id="menu-fold-hidden" x="216" y="138" xmlns="http://www.w3.org/2000/svg"><path fill="#BBB" d="M7 11.5l.7.7 3.5-3.5.7-.7-.7-.7-3.5-3.5-.7.7L10.5 8 7 11.5zm-4 0l.7.7L7.9 8 3.7 3.8l-.7.7L6.5 8 3 11.5z"/></svg><svg id="menu-fold-new" width="18" height="18" viewBox="-1 -1 18 18" x="234" y="138" xmlns="http://www.w3.org/2000/svg"><style>.bgst5{fill:#888}</style><path class="bgst5" d="M1 2h14v2H1zM1 7h7v2H1zM1 12h14v2H1zM15 11V5L9.8 8z"/></svg><svg id="menu-fold-new" width="18" height="18" viewBox="-1 -1 18 18" x="252" y="138" xmlns="http://www.w3.org/2000/svg"><style>.bhst5{fill:#888}</style><path class="bhst5" d="M1 2h14v2H1zM1 7h7v2H1zM1 12h14v2H1zM15 11V5L9.8 8z"/></svg><svg width="18" height="18" viewBox="-1 -1 18 18" id="menu-fold-new-2" x="270" y="138" xmlns="http://www.w3.org/2000/svg"><g fill="#888"><path d="M1 12h14v2H1zM8 7h7v2H8zM1 2h14v2H1zM1 5v6l5.2-3z"/></g></svg><svg width="18" height="18" viewBox="-1 -1 18 18" id="menu-fold-new-2" y="156" xmlns="http://www.w3.org/2000/svg"><g fill="#888"><path d="M1 12h14v2H1zM8 7h7v2H8zM1 2h14v2H1zM1 5v6l5.2-3z"/></g></svg><svg width="18" height="18" viewBox="-1 -1 18 18" id="more" x="18" y="156" xmlns="http://www.w3.org/2000/svg"><path fill="#888" d="M1 0v4h1.995V2h9.978v11H2.995v-2H1v4h13.967V0H1zm5.536 9H1V6h5.536V4l3.527 3.536-3.527 3.537V9z"/></svg><svg id="order" viewBox="-119 116.5 18 18" width="18" height="18" x="36" y="156" xmlns="http://www.w3.org/2000/svg"><style>.blst0{fill:#888}</style><path class="blst0" d="M-105 120v-2h-2v2h-6v-2h-2v2h-2v13h14v-13h-2zm0 11h-10v-8h10v8z"/><path class="blst0" d="M-113 125h6v2h-6z"/></svg><svg id="port" data-name="图层 1" viewBox="-1 -1 18 18" width="18" height="18" x="54" y="156" xmlns="http://www.w3.org/2000/svg"><defs><style>.bmcls-1{fill:none}.bmcls-2{fill:#888}</style></defs><path class="bmcls-1" d="M0 0h16v16H0z"/><path class="bmcls-2" d="M1 1v14h14V1zm12 10h-3v2H6v-2H3V3h10z"/><path class="bmcls-2" d="M7 6h2v2H7z"/></svg><svg width="18" height="18" viewBox="-1 -1 18 18" id="project" x="72" y="156" xmlns="http://www.w3.org/2000/svg"><path d="M1 1h6l2 2.001h6V15H1V1zm2 12.001h10v-8H3v8zm4.373-3.867L10.308 6.2l1.202 1.202-4.137 4.137L4.65 8.816l1.203-1.201 1.52 1.519z" fill="#888" fill-rule="evenodd"/></svg><svg width="18" height="18" viewBox="-1 -1 18 18" id="safe" x="90" y="156" xmlns="http://www.w3.org/2000/svg"><path d="M12 7.286L10.75 8H9v1l-.496.284L8 9.572V11H7V8H4V6h3V4h2v2h3v1.286zm1 0V3H3v5.4c.013.403.268 4.189 5 5.534V14.732l.504.288.948.541c-.447.168-.93.316-1.452.439-6.946-1.641-7-7.6-7-7.6V1h14v7.429l-2-1.143zm-.5 6.214a1.5 1.5 0 1 0 0-3 1.5 1.5 0 0 0 0 3zm0-5.5l3.5 2v4l-3.5 2L9 14v-4l3.5-2z" fill="#888" fill-rule="evenodd"/></svg><svg width="18" height="18" viewBox="-1 -1 18 18" id="search" x="108" y="156" xmlns="http://www.w3.org/2000/svg"><path d="M12.896 10.775L16 13.879 13.879 16l-3.104-3.104a7 7 0 1 1 2.121-2.121zM7 12A5 5 0 1 0 7 2a5 5 0 0 0 0 10z" fill="#888" fill-rule="evenodd"/></svg><svg width="20" height="18" viewBox="-1 -1 20 18" id="service-help" y="120" xmlns="http://www.w3.org/2000/svg"><path fill="#FFF" d="M16 6h-1A6 6 0 0 0 3 6H2a2 2 0 0 0-2 2v2a2 2 0 0 0 2 2h1a4 4 0 0 0 4 4h4v-2.999H7v1c-1.103 0-2-.898-2-2V6c0-2.205 1.794-4 4-4s4 1.794 4 4v6h3a2 2 0 0 0 2-2V8a2 2 0 0 0-2-2zM2 10V8h1v2H2zm14 0h-1V8h1v2z"/></svg><svg width="18" height="18" viewBox="-1 -1 18 18" id="shortcut-icon" x="144" y="156" xmlns="http://www.w3.org/2000/svg"><path d="M1 15h14V1H1v14zm2-2h10V3H3v10zm4-9v3H4v2h3v3h2V9h3V7H9V4H7z" fill="#888" fill-rule="evenodd"/></svg><svg width="18" height="18" viewBox="-1 -1 18 18" id="shortcut-icon-#3d91ff" x="162" y="156" xmlns="http://www.w3.org/2000/svg"><path d="M1 15h14V1H1v14zm2-2h10V3H3v10zm4-9v3H4v2h3v3h2V9h3V7H9V4H7z" fill="#3d91ff" fill-rule="evenodd"/></svg><svg id="shortcut-more" viewBox="-117 117 18 18" width="18" height="18" x="180" y="156" xmlns="http://www.w3.org/2000/svg"><style>.btst0{fill:#888}</style><g id="btICON-基础库_x28_绘制参考_x29_"><g id="bt画板" transform="translate(-2 -6)"><path id="bt合并形状" class="btst0" d="M-111.5 134.2c-.8 0-1.5-.7-1.5-1.5s.7-1.5 1.5-1.5 1.5.7 1.5 1.5-.7 1.5-1.5 1.5zm5 0c-.8 0-1.5-.7-1.5-1.5s.7-1.5 1.5-1.5 1.5.7 1.5 1.5-.7 1.5-1.5 1.5zm5 0c-.8 0-1.5-.7-1.5-1.5s.7-1.5 1.5-1.5 1.5.7 1.5 1.5-.7 1.5-1.5 1.5z"/></g></g></svg><svg width="18" height="18" viewBox="-117 117 18 18" id="shortcut-more-#3d91ff" x="198" y="156" xmlns="http://www.w3.org/2000/svg"><style>.bust0{fill:#3d91ff}</style><path class="bust0" d="M-113.5 128.2c-.8 0-1.5-.7-1.5-1.5s.7-1.5 1.5-1.5 1.5.7 1.5 1.5-.7 1.5-1.5 1.5zm5 0c-.8 0-1.5-.7-1.5-1.5s.7-1.5 1.5-1.5 1.5.7 1.5 1.5-.7 1.5-1.5 1.5zm5 0c-.8 0-1.5-.7-1.5-1.5s.7-1.5 1.5-1.5 1.5.7 1.5 1.5-.7 1.5-1.5 1.5z"/></svg><svg width="94" height="120" viewBox="-1 -1 94 120" id="step-1" xmlns="http://www.w3.org/2000/svg"><defs><linearGradient x1="5.345%" y1="-21.027%" y2="98.181%" id="bvb"><stop stop-color="#FFF" stop-opacity="0" offset="0%"/><stop stop-color="#E4E6E6" offset="100%"/></linearGradient><path id="bvc" d="M19 0l16.454 9.5v19L19 38 2.546 28.5v-19z"/><path id="bve" d="M19 0l16.454 9.5v19L19 38 2.546 28.5v-19z"/><linearGradient x1="0%" y1="10.129%" y2="74.729%" id="bvg"><stop stop-color="#EEE" offset="0%"/><stop stop-color="#D2D2D2" offset="100%"/></linearGradient><linearGradient x1="6.708%" y1="11.493%" x2="84.283%" y2="84.78%" id="bvh"><stop stop-color="#C8C8C8" offset="0%"/><stop stop-color="#979797" offset="100%"/></linearGradient><linearGradient x1="50%" y1="0%" x2="50%" y2="100%" id="bvi"><stop stop-color="#C8C8C8" offset="0%"/><stop stop-color="#979797" offset="100%"/></linearGradient><path id="bva" d="M34.02 18.263l30.877 8.407L78.45 76.45 28.67 62.897l-13.553-49.78 7.614 2.073"/><mask id="bvj" x="0" y="0" width="63.333" height="63.333" fill="#fff"><use xlink:href="#bva"/></mask><linearGradient x1="86.131%" y1="0%" x2="14.005%" y2="100%" id="bvk"><stop stop-color="#F7F7F7" offset="0%"/><stop stop-color="#0075FF" offset="100%"/></linearGradient></defs><g transform="translate(-1 -19)" fill="none" fill-rule="evenodd"><path fill="url(#bvb)" fill-rule="nonzero" opacity=".747" transform="rotate(-45 46.783 110.783)" d="M15.04 79.194l49.935 13.398 13.553 49.78-49.936-13.397z"/><g transform="translate(56 67)"><mask id="bvd" fill="#fff"><use xlink:href="#bvc"/></mask><use fill="#F7F7F7" fill-rule="nonzero" xlink:href="#bvc"/><path fill="#ECEEEE" fill-rule="nonzero" mask="url(#bvd)" d="M2 10l18 9.95v24L2 34z"/></g><path fill="#DEE0E0" fill-rule="nonzero" d="M93 76l-18 9.95v19L93 95z"/><g transform="translate(0 66)"><mask id="bvf" fill="#fff"><use xlink:href="#bve"/></mask><use fill="#F7F7F7" fill-rule="nonzero" xlink:href="#bve"/><path fill="#ECEEEE" fill-rule="nonzero" mask="url(#bvf)" d="M2 10l18 9.95v24L2 34z"/></g><path fill="#DEE0E0" fill-rule="nonzero" d="M37 75l-18 9.95v19L37 94z"/><g fill-rule="nonzero"><path fill="url(#bvg)" d="M19 4.75l12.34 7.125v14.25L19 33.25 6.66 26.125v-14.25z" transform="translate(28 85)"/><path stroke="url(#bvh)" d="M19 0l16.454 9.5v19L19 38 2.546 28.5v-19z" transform="translate(28 85)"/><path stroke="url(#bvi)" d="M2.39 10L19 19.989 35.266 10" transform="translate(28 85)"/><path fill="#989898" d="M46 105h1v18h-1z"/></g><path d="M75 68.195V78M19 67.195V77M47 85.195V95" stroke="#979797" stroke-dasharray="1,1" fill-rule="nonzero"/><path fill="#F7F7F7" fill-rule="nonzero" d="M2.34 53.464l44.784-25.836 44.783 25.617L47.124 79.08z"/><use stroke="#006EFF" mask="url(#bvj)" stroke-width="4" stroke-dasharray="2,2" fill-rule="nonzero" transform="rotate(-45 46.783 44.783)" xlink:href="#bva"/><path fill="#ECEEEE" fill-rule="nonzero" d="M2 53.333l45 25.834v7.5L2 60.833z"/><path fill="#DEE0E0" fill-rule="nonzero" d="M92 53.333L47 79.167v7.5l45-25.834z"/><path fill="url(#bvk)" fill-rule="nonzero" d="M43.646 43.527L36 39.082l3.286-1.926 7.646 4.445L54.714 37 58 38.927l-7.782 4.6 7.687 4.547L54.619 50l-7.687-4.546-7.551 4.388-3.286-1.927z"/><path fill="#006EFF" fill-rule="nonzero" d="M35.495 27.869l-.99-1.738 12.259-6.986 12.222 6.987-.993 1.736-11.23-6.42zM60.712 60.133l.996 1.734-14.918 8.559-14.848-8.56 1-1.732 13.85 7.985zM5.87 44.786l8.804 4.896-.972 1.748-12.008-6.677 14.065-7.532.945 1.763zM77.23 38.92l.989-1.738 13.49 7.668-12.027 6.708-.974-1.746 8.924-4.979z"/></g></svg><svg width="93" height="119" viewBox="-1 -1 93 119" id="step-2" x="94" xmlns="http://www.w3.org/2000/svg"><defs><linearGradient x1="5.345%" y1="-21.027%" y2="98.181%" id="bwa"><stop stop-color="#FFF" stop-opacity="0" offset="0%"/><stop stop-color="#E4E6E6" offset="100%"/></linearGradient><linearGradient x1="29.045%" y1="-21.588%" x2="96.835%" y2="100%" id="bwb"><stop stop-color="#C8C8C8" stop-opacity="0" offset="0%"/><stop stop-color="#979797" offset="100%"/></linearGradient><linearGradient x1="-5.836%" y1="50%" x2="103.404%" y2="53.203%" id="bwc"><stop stop-color="#C8C8C8" stop-opacity="0" offset="0%"/><stop stop-color="#979797" offset="100%"/></linearGradient><linearGradient x1="0%" y1="50%" y2="75.237%" id="bwd"><stop stop-color="#006EFF" offset="0%"/><stop stop-color="#0072FF" stop-opacity="0" offset="100%"/></linearGradient><linearGradient x1="0%" y1="50%" x2="79.061%" y2="50%" id="bwe"><stop stop-color="#006EFF" offset="0%"/><stop stop-color="#0072FF" stop-opacity="0" offset="100%"/></linearGradient><linearGradient x1="100%" y1="50%" x2="0%" y2="50%" id="bwf"><stop stop-color="#D4D4D4" stop-opacity="0" offset="0%"/><stop stop-color="#9B9B9B" offset="100%"/></linearGradient></defs><g fill-rule="nonzero" fill="none"><path fill="url(#bwa)" opacity=".747" transform="rotate(-45 45.783 90.783)" d="M14.04 59.194l49.935 13.398 13.553 49.78-49.936-13.397z"/><path d="M13.75 14.686L27 63.35l48.818 13.097-13.25-48.663L13.75 14.686z" stroke="url(#bwb)" transform="rotate(-45 87.032 63.067)"/><path d="M43.617 62.286L37.67 58.83l-6.42 3.733-.502-.865 5.928-3.447-6.445-3.747-6.98 4.059-.503-.865 6.488-3.772-6.805-3.957-6.18 3.594-.503-.865 5.688-3.307-6.445-3.747-6.74 3.919-.503-.865 6.248-3.633-6.248-3.633.502-.864 6.74 3.919 5.946-3.457-6.188-3.598.502-.864 6.68 3.884 6.446-3.747-5.628-3.273.502-.864 6.12 3.558 5.946-3.456-5.568-3.238.502-.864 6.06 3.523 6.446-3.747-5.008-2.912.502-.864 5.5 3.198 7.22-4.198.503.864-6.728 3.912 6.445 3.747 7.78-4.523.503.864-7.288 4.238 6.805 3.956 6.98-4.058.503.864-6.488 3.773 6.445 3.747 7.54-4.384.503.864-7.048 4.098 5.945 3.457 7.6-4.42.503.865-7.108 4.133 7.108 4.133-.503.865-7.6-4.42-6.445 3.748 6.548 3.807-.503.865-7.04-4.094-5.945 3.457 6.488 3.772-.503.865-6.98-4.059-6.445 3.747 5.928 3.447-.503.865-6.42-3.733-5.945 3.456 5.868 3.412-.503.865-6.36-3.698-6.36 3.698-.502-.865 5.868-3.412zm.994-.578l5.945-3.457-5.945-3.456-5.945 3.456 5.945 3.457zm6.94-4.035l6.445-3.747-5.945-3.457-6.445 3.748 5.945 3.456zm7.44-4.326l5.945-3.456-5.945-3.457-5.945 3.457 5.945 3.456zm6.94-4.035l6.445-3.747-5.945-3.456-6.445 3.747 5.945 3.456zm-35.7 4.035l5.946-3.456-6.805-3.957-5.946 3.457 6.806 3.956zm6.94-4.035l6.446-3.747-6.806-3.956-6.445 3.747 6.805 3.956zm7.44-4.325l5.945-3.457-6.805-3.956-5.945 3.456 6.805 3.957zm6.94-4.035l6.445-3.747-6.805-3.957-6.445 3.747 6.805 3.957zm7.44-3.17l-6.445 3.748 6.445 3.748 6.445-3.748-6.445-3.747zm-7.44 4.327l-5.945 3.456 6.445 3.747 5.945-3.456-6.445-3.747zm-6.94 4.035l-6.445 3.747 6.445 3.747 6.445-3.747-6.445-3.747zm-7.44 4.325l-5.945 3.457 6.445 3.747 5.946-3.456-6.446-3.748zm-14.74-1.657l5.946-3.456-6.445-3.747-5.945 3.456 6.445 3.747zm6.94-4.034l6.446-3.748-6.445-3.747-6.446 3.747 6.446 3.748zm7.44-4.326l5.946-3.457-6.446-3.747-5.945 3.457 6.445 3.747zm6.94-4.035l6.445-3.747-6.445-3.748-6.445 3.748 6.445 3.747z" fill="url(#bwc)" transform="translate(0 35)"/><path fill="#F7F7F7" d="M.34 59.464l44.784-25.836 44.783 25.617L45.124 85.08z"/><path d="M2.014 50.783l42.77 24.465 42.769-24.465-42.77-24.464L2.014 50.783z" stroke="#006EFF" stroke-width="2"/><path d="M34.414 49.272l-6.95-1.604 4.55-2.708 6.951 1.694-.235.145.27-.155v-5.76l4.045-2.233v5.675L45.36 43l4.105 2.4-4.648 2.663 2.892 1.694 4.831-2.768 4.115 2.3-4.898 2.838 8.458 4.953-4.01 1.92-8.008-4.81-5.911 3.426-4.105-2.4 6-3.438-2.854-1.715-6.22 3.565-4.106-2.4 3.414-1.956z" fill="url(#bwd)"/><path fill="#ECEEEE" d="M0 59.333l45 25.834v7.5L0 66.833z"/><path fill="#DEE0E0" d="M90 59.333L45 85.167v7.5l45-25.834z"/><g transform="translate(1 21)"><circle fill="#006EFF" cx="18.5" cy="29.5" r="1.5"/><path d="M18.5 25.142V1" stroke="#006EFF" stroke-dasharray="1"/><path fill="url(#bwe)" transform="matrix(-1 0 0 1 20 0)" d="M.5 0h19v4H.5z"/></g><g transform="translate(57)"><circle fill="#A9A9A9" cx="1.5" cy="40.5" r="1.5"/><path d="M1.5 36.142V0" stroke="#9D9D9D" stroke-dasharray="1"/><path fill="url(#bwf)" d="M1 0h19v4H1z"/></g><g transform="translate(66 28)"><circle fill="silver" cx="1.5" cy="26.5" r="1.5"/><path d="M1.5 22.142V.94" stroke="#B7B7B7" stroke-dasharray="1"/><path fill="url(#bwf)" opacity=".534" d="M1 1h19v4H1z"/></g></g></svg><svg width="110" height="114" viewBox="-1 -1 110 114" id="step-3" x="187" xmlns="http://www.w3.org/2000/svg"><defs><linearGradient x1="94.162%" y1="117.117%" x2="14.133%" y2="13.39%" id="bxa"><stop stop-color="#A2A2A2" offset="0%"/><stop stop-color="#DFDFDF" stop-opacity="0" offset="100%"/></linearGradient><linearGradient x1="0%" y1="5.009%" x2="105.812%" y2="108.182%" id="bxb"><stop stop-color="#006EFF" offset="0%"/><stop stop-color="#0072FF" stop-opacity="0" offset="100%"/></linearGradient><linearGradient x1="50%" y1="92.015%" x2="50%" y2="0%" id="bxc"><stop stop-color="#006EFF" offset="0%"/><stop stop-color="#0072FF" stop-opacity="0" offset="100%"/></linearGradient></defs><g fill-rule="nonzero" fill="none"><path fill="url(#bxa)" opacity=".401" transform="rotate(-45 41.525 82.525)" d="M11.291 56.862L61.227 70.26l10.532 37.928-40.59-10.89-6.325 9.345z"/><path fill="#DEE0E0" d="M80 49L35 74.833v7.5L80 56.5z"/><path fill="#F7F7F7" d="M1.34 55.464l44.784-25.836L80.39 49 43.99 70l2.134 11.081z"/><path d="M3.014 46.783l41.998 24.024 1.697-11.26 32.41-18.538-33.33-18.693L3.013 46.783z" stroke="#006EFF" stroke-width="2"/><path fill="url(#bxb)" transform="rotate(135 79.429 46.429)" d="M59.639 27.429l8.792 8.032 24.13 6.372L99.22 65.43l-25.656-6.775-6.043-1.577z"/><path fill="#ECEEEE" d="M1 55.333L46 80.86v7.5L1 62.833z"/><g transform="translate(29)"><ellipse stroke="#006EFF" stroke-width="2" cx="3" cy="49.714" rx="3" ry="1.714"/><ellipse stroke="#006EFF" stroke-width="2" cx="13" cy="43.714" rx="3" ry="1.714"/><ellipse stroke="#006EFF" stroke-width="2" cx="23" cy="38.714" rx="3" ry="1.714"/><path d="M0 50V18.32h5V50c0 1.105-1.12 2-2.5 2S0 51.105 0 50z" fill="url(#bxc)" opacity=".635"/><path d="M10 44V5h5v39c0 1.105-1.12 2-2.5 2s-2.5-.895-2.5-2z" fill="url(#bxc)" opacity=".307"/><path d="M20 39V0h5v39c0 1.105-1.12 2-2.5 2s-2.5-.895-2.5-2z" fill="url(#bxc)" opacity=".169"/></g><path d="M74.504 71.508l-1.008-1.727 1.728-1.008 1.007 1.728-1.727 1.007zm3.455-2.014l-1.007-1.728 1.728-1.007 1.007 1.727-1.728 1.008zm3.456-2.015l-1.007-1.728 1.727-1.007 1.008 1.728-1.728 1.007zm3.455-2.014l-1.007-1.728 1.728-1.008 1.007 1.728-1.728 1.008zm3.456-2.015l-1.007-1.728 1.728-1.007 1.007 1.728-1.728 1.007zm3.456-2.015l-1.008-1.728 1.728-1.007 1.008 1.728-1.728 1.007zm3.455-2.014l-1.007-1.728 1.728-1.008 1.007 1.728-1.728 1.008zm3.456-2.015l-1.007-1.728 1.727-1.007 1.008 1.728-1.728 1.007zm3.456-2.015l-1.008-1.727 1.728-1.008 1.007 1.728-1.727 1.007zm3.455-2.014l-1.007-1.728 1.728-1.007 1.007 1.727-1.728 1.008zM92.222 68.297l-1.008-1.727 1.727-1.008 1.009 1.727-1.728 1.008zm3.455-2.017l-1.009-1.727 1.728-1.008 1.008 1.727-1.727 1.008zm3.454-2.017l-1.008-1.727 1.727-1.008 1.008 1.727-1.727 1.008zm3.454-2.016l-1.008-1.728 1.727-1.008 1.009 1.727-1.728 1.009zm3.455-2.017l-1.009-1.727 1.727-1.009 1.009 1.727-1.727 1.009zM1.492 68.444l-.984-1.741 1.741-.984.984 1.741-1.741.984zm3.483-1.968l-.984-1.74 1.741-.985.984 1.742-1.741.983zm3.482-1.967l-.984-1.741 1.742-.984.983 1.741-1.74.984zm3.483-1.968l-.984-1.741 1.741-.984.984 1.742-1.741.983z" fill="#979797"/></g></svg><svg width="18" height="18" viewBox="-1 -1 18 18" id="tag" x="270" y="156" xmlns="http://www.w3.org/2000/svg"><defs><path id="bya" d="M11 6.179a1 1 0 1 1 0-2 1 1 0 0 1 0 2zM8.343.694A2 2 0 0 1 9.757.108h4.204a2 2 0 0 1 2 1.985l.033 4.249a2 2 0 0 1-.586 1.43l-7.643 7.643a2 2 0 0 1-2.828 0L.694 11.173a2 2 0 0 1 0-2.828L8.343.694zm.7 10.614l4.951-4.951-.033-4.249H9.757L4.8 7.065l4.243 4.243zm-1.414 1.414L3.386 8.479 2.107 9.758 6.35 14l1.279-1.278z"/></defs><clipPath id="byb"><use xlink:href="#bya" overflow="visible"/></clipPath><g clip-path="url(#byb)"><defs><path id="byc" d="M0 0h16v16H0z"/></defs><clipPath id="byd"><use xlink:href="#byc" overflow="visible"/></clipPath><path clip-path="url(#byd)" fill="#888" d="M-4.893-5.071h25.886v25.892H-4.893z"/></g></svg><svg id="tip-close" width="18" height="18" viewBox="-1 -1 18 18" y="174" xmlns="http://www.w3.org/2000/svg"><style>.bzst0{fill:#fff}</style><path class="bzst0" d="M13.9 3.5l-1.4-1.4L8 6.6 3.5 2.1 2.1 3.5 6.6 8l-4.5 4.5 1.4 1.4L8 9.4l4.5 4.5 1.4-1.4L9.4 8z"/></svg><svg width="18" height="18" viewBox="-1 -1 18 18" id="visit" x="18" y="174" xmlns="http://www.w3.org/2000/svg"><path d="M1.07 7A7.005 7.005 0 0 1 7 1.07V3.1A5.006 5.006 0 0 0 3.1 7h2.07a3.001 3.001 0 0 1 5.66 0H16v2h-1.07A7.005 7.005 0 0 1 9 14.93V12.9A5.006 5.006 0 0 0 12.9 9h-2.07a3.001 3.001 0 0 1-5.66 0H0V7h1.07zm-.488 4h2.22A6.005 6.005 0 0 0 7 13.917v2.021A8.008 8.008 0 0 1 .582 11zm14.836-6h-2.22A6.005 6.005 0 0 0 9 2.083V.062A8.008 8.008 0 0 1 15.418 5zM8 9a1 1 0 1 0 0-2 1 1 0 0 0 0 2z" fill="#888" fill-rule="nonzero"/></svg><svg width="18" height="18" viewBox="-1 -1 18 18" id="wechat" x="36" y="174" xmlns="http://www.w3.org/2000/svg"><path d="M7 9h8V1H7v8zm2-2h4V3H9v4zM1 1v6h2V3h2V1H1zm9 5h2V4h-2v2zM3 9h2V7H3v2zm-2 2h2V8.999H1V11zm8 0v2H7v2h4v-2h2v2h2v-4H9zm-6 0v2H1v2h4v-2h2v-2H3z" fill="#888" fill-rule="evenodd"/></svg><svg width="18" height="18" viewBox="-1 -1 18 18" id="wechat-#3d91ff" x="54" y="174" xmlns="http://www.w3.org/2000/svg"><path d="M7 9h8V1H7v8zm2-2h4V3H9v4zM1 1v6h2V3h2V1H1zm9 5h2V4h-2v2zM3 9h2V7H3v2zm-2 2h2V8.999H1V11zm8 0v2H7v2h4v-2h2v2h2v-4H9zm-6 0v2H1v2h4v-2h2v-2H3z" fill="#3d91ff" fill-rule="evenodd"/></svg></svg>